<svg viewBox="0 0 13 11" fill="none" xmlns="http://www.w3.org/2000/svg">
  <rect width="1" height="8" fill="black" />
  <rect x="9" y="2" width="1" height="9" fill="black" />
  <rect x="1" width="2" height="1" fill="black" />
  <rect x="1" y="2" width="2" height="1" fill="black" />
  <rect x="1" y="3" width="2" height="5" fill="white" />
  <rect x="1" y="1" width="2" height="1" fill="#00FFFF" />
  <rect y="8" width="3" height="1" fill="black" />
  <rect x="3" y="1" width="4" height="1" fill="black" />
  <rect x="7" y="2" width="2" height="1" fill="black" />
  <rect x="7" y="4" width="2" height="1" fill="black" />
  <rect x="7" y="5" width="2" height="5" fill="white" />
  <rect x="2" y="3" width="1" height="1" fill="#CCCCCC" />
  <rect x="7" y="3" width="2" height="1" fill="#00FFFF" />
  <rect x="7" y="10" width="2" height="1" fill="black" />
  <rect x="3" y="3" width="4" height="1" fill="black" />
  <rect x="3" y="4" width="4" height="5" fill="white" />
  <rect x="3" y="2" width="4" height="1" fill="#00FFFF" />
  <rect x="3" y="8" width="1" height="1" fill="#CCCCCC" />
  <rect x="6" y="4" width="1" height="1" fill="#CCCCCC" />
  <rect x="12" y="8" width="1" height="1" fill="#CCCCCC" />
  <rect x="7" y="9" width="1" height="1" fill="#CCCCCC" />
  <rect x="10" y="7" width="1" height="3" fill="#CCCCCC" />
  <rect x="11" y="8" width="1" height="2" fill="#CCCCCC" />
  <rect x="3" y="9" width="4" height="1" fill="black" />
</svg>
